<svg width="40" height="40" viewBox="0 0 40 40" fill="none" xmlns="http://www.w3.org/2000/svg">
<g clip-path="url(#clip0_140_1570)">
<path d="M20 25C21.3833 25 22.5625 24.5125 23.5375 23.5375C24.5125 22.5625 25 21.3833 25 20C25 18.6167 24.5125 17.4375 23.5375 16.4625C22.5625 15.4875 21.3833 15 20 15C18.6167 15 17.4375 15.4875 16.4625 16.4625C15.4875 17.4375 15 18.6167 15 20C15 21.3833 15.4875 22.5625 16.4625 23.5375C17.4375 24.5125 18.6167 25 20 25ZM20 30C18.6167 30 17.3167 29.7375 16.1 29.2125C14.8833 28.6875 13.825 27.975 12.925 27.075C12.025 26.175 11.3125 25.1167 10.7875 23.9C10.2625 22.6833 10 21.3833 10 20C10 18.6167 10.2625 17.3167 10.7875 16.1C11.3125 14.8833 12.025 13.825 12.925 12.925C13.825 12.025 14.8833 11.3125 16.1 10.7875C17.3167 10.2625 18.6167 10 20 10C21.3833 10 22.6833 10.2625 23.9 10.7875C25.1167 11.3125 26.175 12.025 27.075 12.925C27.975 13.825 28.6875 14.8833 29.2125 16.1C29.7375 17.3167 30 18.6167 30 20C30 21.3833 29.7375 22.6833 29.2125 23.9C28.6875 25.1167 27.975 26.175 27.075 27.075C26.175 27.975 25.1167 28.6875 23.9 29.2125C22.6833 29.7375 21.3833 30 20 30ZM20 28C22.2333 28 24.125 27.225 25.675 25.675C27.225 24.125 28 22.2333 28 20C28 17.7667 27.225 15.875 25.675 14.325C24.125 12.775 22.2333 12 20 12C17.7667 12 15.875 12.775 14.325 14.325C12.775 15.875 12 17.7667 12 20C12 22.2333 12.775 24.125 14.325 25.675C15.875 27.225 17.7667 28 20 28Z" fill="#8093F1"/>
</g>
<defs>
<clipPath id="clip0_140_1570">
<rect width="40" height="40" rx="20" fill="white"/>
</clipPath>
</defs>
</svg>
