<svg width="24" height="24" viewBox="0 0 24 24" fill="none" xmlns="http://www.w3.org/2000/svg">
<path d="M14.5271 5.44575C15.4096 5.44575 16.1249 4.73036 16.1249 3.84787C16.1249 2.96539 15.4096 2.25 14.5271 2.25C13.6446 2.25 12.9292 2.96539 12.9292 3.84787C12.9292 4.73036 13.6446 5.44575 14.5271 5.44575Z" fill="currentColor"/>
<path d="M15.0936 6.72478L12.2537 5.75728L8.61552 7.08037C8.39877 7.15967 8.21155 7.30354 8.07911 7.49257C7.94668 7.6816 7.8754 7.90669 7.8749 8.1375V10.875H9.3749V8.40033L11.6629 7.56834L7.4353 20.625H9.01091L11.3585 13.3214L11.7275 13.4417L13.4999 16.6912V20.625H14.9999V16.5956C14.9997 16.4074 14.9525 16.2222 14.8625 16.0569L13.1019 12.829L14.4589 8.67051L15.3621 10.2963C15.4596 10.4717 15.6022 10.6178 15.7751 10.7195C15.948 10.8213 16.1449 10.8749 16.3455 10.875H18.7499V9.375H16.5662L15.0936 6.72478Z" fill="currentColor"/>
</svg>
