<svg width="24" height="24" viewBox="0 0 24 24" fill="none" xmlns="http://www.w3.org/2000/svg">
<g clip-path="url(#clip0_162_2281)">
<path fill-rule="evenodd" clip-rule="evenodd" d="M11.9999 2.75C11.7701 2.75 11.5426 2.79527 11.3302 2.88321C11.1179 2.97116 10.925 3.10006 10.7625 3.26256C10.6 3.42507 10.4711 3.61798 10.3831 3.8303C10.2952 4.04262 10.2499 4.27019 10.2499 4.5C10.2499 4.72981 10.2952 4.95738 10.3831 5.1697C10.4711 5.38202 10.6 5.57493 10.7625 5.73744C10.925 5.89994 11.1179 6.02884 11.3302 6.11679C11.5426 6.20474 11.7701 6.25 11.9999 6.25C12.4641 6.25 12.9092 6.06563 13.2374 5.73744C13.5656 5.40925 13.7499 4.96413 13.7499 4.5C13.7499 4.03587 13.5656 3.59075 13.2374 3.26256C12.9092 2.93437 12.4641 2.75 11.9999 2.75ZM8.74993 4.5C8.74993 3.63805 9.09234 2.8114 9.70183 2.2019C10.3113 1.59241 11.138 1.25 11.9999 1.25C12.8619 1.25 13.6885 1.59241 14.298 2.2019C14.9075 2.8114 15.2499 3.63805 15.2499 4.5C15.2499 5.36195 14.9075 6.1886 14.298 6.7981C13.6885 7.40759 12.8619 7.75 11.9999 7.75C11.138 7.75 10.3113 7.40759 9.70183 6.7981C9.09234 6.1886 8.74993 5.36195 8.74993 4.5ZM11.9999 9.77C11.7124 9.7667 11.425 9.78408 11.1399 9.822L10.2479 9.972C8.23493 10.311 6.74993 12.074 6.74993 14.15C6.75048 14.6821 6.62038 15.2062 6.37105 15.6763C6.12171 16.1464 5.76077 16.548 5.31993 16.846L5.21993 16.915C4.9652 17.0869 4.68835 17.2235 4.39693 17.321L3.23993 17.711C3.05136 17.7747 2.84523 17.7608 2.66688 17.6725C2.48853 17.5841 2.35258 17.4286 2.28893 17.24C2.22527 17.0514 2.23914 16.8453 2.32747 16.667C2.4158 16.4886 2.57136 16.3527 2.75993 16.289L3.91893 15.899C4.08293 15.8437 4.23693 15.7677 4.38093 15.671L4.48293 15.602C4.71979 15.4412 4.91359 15.2247 5.04731 14.9715C5.18104 14.7184 5.25061 14.4363 5.24993 14.15C5.24993 11.353 7.25293 8.955 9.99793 8.493L10.8879 8.343C11.2561 8.28949 11.6279 8.26541 11.9999 8.271C12.3719 8.26541 12.7438 8.28949 13.1119 8.343L14.0019 8.493C16.7479 8.955 18.7499 11.353 18.7499 14.15C18.7499 14.736 19.0399 15.28 19.5179 15.602L19.6189 15.671C19.7636 15.7677 19.9179 15.8437 20.0819 15.899L21.2399 16.289C21.4285 16.3527 21.5841 16.4886 21.6724 16.667C21.7607 16.8453 21.7746 17.0514 21.7109 17.24C21.6473 17.4286 21.5113 17.5841 21.333 17.6725C21.1546 17.7608 20.9485 17.7747 20.7599 17.711L19.6029 17.321C19.3119 17.2234 19.0353 17.0868 18.7809 16.915L18.6799 16.846C18.2391 16.548 17.8781 16.1464 17.6288 15.6763C17.3795 15.2062 17.2494 14.6821 17.2499 14.15C17.2499 12.074 15.7649 10.311 13.7529 9.972L12.8609 9.822C12.5759 9.78441 12.2884 9.76737 12.0009 9.771M8.90093 15.551C8.96002 15.4722 9.03406 15.4058 9.11881 15.3556C9.20356 15.3055 9.29736 15.2725 9.39486 15.2585C9.49236 15.2446 9.59165 15.25 9.68706 15.2745C9.78247 15.2989 9.87213 15.3419 9.95093 15.401C10.0297 15.4601 10.0961 15.5341 10.1463 15.6189C10.1965 15.7036 10.2295 15.7974 10.2434 15.8949C10.2573 15.9924 10.2519 16.0917 10.2275 16.1871C10.203 16.2825 10.16 16.3722 10.1009 16.451L9.17693 17.684L9.15493 17.713C9.04925 17.859 8.93575 17.9992 8.81493 18.133C8.53314 18.4283 8.18916 18.6572 7.80793 18.803C7.65293 18.861 7.49193 18.901 7.28793 18.953L7.25293 18.961L5.45893 19.41C5.23851 19.4662 5.04614 19.6008 4.91785 19.7887C4.78956 19.9765 4.73414 20.2047 4.76198 20.4304C4.78982 20.6562 4.899 20.8641 5.06907 21.0151C5.23915 21.1662 5.45846 21.25 5.68593 21.251H6.36993C7.91593 21.251 9.41993 20.75 10.6569 19.822L12.5499 18.4C12.6287 18.3409 12.7184 18.2979 12.8138 18.2735C12.9092 18.249 13.0085 18.2436 13.106 18.2575C13.2035 18.2715 13.2973 18.3045 13.382 18.3546C13.4668 18.4048 13.5408 18.4712 13.5999 18.55C13.659 18.6288 13.702 18.7185 13.7265 18.8139C13.7509 18.9093 13.7563 19.0086 13.7424 19.1061C13.7285 19.2036 13.6955 19.2974 13.6453 19.3821C13.5951 19.4669 13.5287 19.5409 13.4499 19.6L12.5459 20.278L13.0369 20.463C13.5709 20.663 13.8119 20.753 14.0539 20.829C14.7821 21.0561 15.5354 21.1928 16.2969 21.236C16.5499 21.25 16.8069 21.25 17.3769 21.25H18.3159C18.5433 21.2488 18.7625 21.1647 18.9323 21.0136C19.1022 20.8625 19.2112 20.6546 19.239 20.4289C19.2667 20.2032 19.2112 19.9752 19.0829 19.7875C18.9546 19.5997 18.7623 19.4652 18.5419 19.409L17.0689 19.04L16.9869 19.02C16.5109 18.901 16.1359 18.808 15.8009 18.614C15.7006 18.5557 15.6038 18.4916 15.5109 18.422C15.2029 18.188 14.9709 17.879 14.6779 17.486L14.6269 17.419L13.8999 16.45C13.8408 16.3712 13.7978 16.2815 13.7734 16.1861C13.7489 16.0907 13.7435 15.9914 13.7575 15.8939C13.7714 15.7964 13.8044 15.7026 13.8546 15.6179C13.9048 15.5331 13.9711 15.4591 14.0499 15.4C14.1287 15.3409 14.2184 15.2979 14.3138 15.2735C14.4092 15.249 14.5085 15.2436 14.606 15.2575C14.7035 15.2715 14.7973 15.3045 14.882 15.3546C14.9668 15.4048 15.0408 15.4712 15.0999 15.55L15.8269 16.519C16.1949 17.01 16.2979 17.137 16.4179 17.228C16.4599 17.2587 16.5039 17.2877 16.5499 17.315C16.6799 17.39 16.8369 17.436 17.4329 17.585L18.9059 17.953C19.4821 18.0974 19.9857 18.4474 20.3218 18.9371C20.658 19.4269 20.8035 20.0227 20.731 20.6122C20.6584 21.2018 20.3729 21.7446 19.9281 22.1383C19.4833 22.532 18.9099 22.7496 18.3159 22.75H17.3529C16.8139 22.75 16.5129 22.75 16.2129 22.733C15.3278 22.6829 14.4522 22.5241 13.6059 22.26C13.3199 22.17 13.0389 22.065 12.5339 21.876L11.1019 21.339C9.69491 22.2593 8.05019 22.7496 6.36893 22.75H5.68493C5.09091 22.7496 4.51753 22.532 4.07273 22.1383C3.62794 21.7446 3.34241 21.2018 3.2699 20.6122C3.19738 20.0227 3.34288 19.4269 3.67901 18.9371C4.01514 18.4474 4.51871 18.0974 5.09493 17.953L6.88793 17.505C7.14293 17.441 7.21193 17.423 7.27193 17.4C7.44493 17.334 7.60193 17.23 7.72993 17.096C7.77393 17.049 7.81793 16.994 7.97593 16.783L8.90093 15.551Z" fill="black"/>
</g>
<defs>
<clipPath id="clip0_162_2281">
<rect width="24" height="24" fill="white"/>
</clipPath>
</defs>
</svg>
