<svg width="24" height="24" viewBox="0 0 24 24" fill="none" xmlns="http://www.w3.org/2000/svg">
<path fill-rule="evenodd" clip-rule="evenodd" d="M10.4859 4.114C11.1609 2.952 12.8389 2.952 13.5139 4.114L15.5789 7.674C15.7689 8.002 16.0989 8.225 16.4739 8.282L19.9039 8.8C21.3979 9.026 21.9219 10.914 20.7579 11.878L18.2589 13.948C18.0867 14.0908 17.9559 14.2772 17.8803 14.4877C17.8046 14.6983 17.7869 14.9253 17.8289 15.145L18.5289 18.821C18.8029 20.261 17.2909 21.379 15.9939 20.697L12.5819 18.9C12.4024 18.8056 12.2027 18.7562 11.9999 18.7562C11.7971 18.7562 11.5974 18.8056 11.4179 18.9L8.0059 20.697C6.7089 21.38 5.1969 20.261 5.4709 18.821L6.1709 15.145C6.2129 14.9253 6.19516 14.6983 6.11952 14.4877C6.04388 14.2772 5.91313 14.0908 5.7409 13.948L3.2409 11.878C2.0779 10.914 2.6009 9.026 4.0969 8.8L7.5269 8.282C7.71201 8.25392 7.88845 8.18462 8.04318 8.07921C8.19792 7.97381 8.327 7.83498 8.4209 7.673L10.4859 4.114ZM12.2159 4.867C12.1939 4.82923 12.1624 4.7979 12.1245 4.77612C12.0866 4.75434 12.0436 4.74287 11.9999 4.74287C11.9562 4.74287 11.9132 4.75434 11.8753 4.77612C11.8374 4.7979 11.8059 4.82923 11.7839 4.867L9.7179 8.427C9.51111 8.78305 9.22701 9.08812 8.88656 9.3197C8.54612 9.55128 8.15801 9.70346 7.7509 9.765L4.3209 10.283C4.27314 10.2902 4.22848 10.311 4.19233 10.3431C4.15617 10.3751 4.13006 10.4169 4.11716 10.4634C4.10425 10.51 4.10511 10.5592 4.11961 10.6053C4.13412 10.6514 4.16165 10.6923 4.1989 10.723L6.6979 12.793C7.07675 13.1069 7.36447 13.5167 7.53103 13.9796C7.6976 14.4425 7.73692 14.9417 7.6449 15.425L6.9449 19.101C6.9361 19.1472 6.94052 19.195 6.95765 19.2388C6.97478 19.2826 7.00392 19.3207 7.04173 19.3487C7.07954 19.3767 7.12448 19.3934 7.17139 19.397C7.21829 19.4006 7.26526 19.3909 7.3069 19.369L10.7189 17.573C11.1139 17.3651 11.5535 17.2564 11.9999 17.2564C12.4463 17.2564 12.8859 17.3651 13.2809 17.573L16.6929 19.369C16.7345 19.3909 16.7815 19.4006 16.8284 19.397C16.8753 19.3934 16.9203 19.3767 16.9581 19.3487C16.9959 19.3207 17.025 19.2826 17.0421 19.2388C17.0593 19.195 17.0637 19.1472 17.0549 19.101L16.3549 15.425C16.2629 14.9417 16.3022 14.4425 16.4688 13.9796C16.6353 13.5167 16.923 13.1069 17.3019 12.793L19.8019 10.723C19.8392 10.6922 19.8667 10.6512 19.8811 10.6051C19.8956 10.5589 19.8964 10.5096 19.8833 10.463C19.8703 10.4165 19.8441 10.3747 19.8078 10.3427C19.7715 10.3108 19.7267 10.29 19.6789 10.283L16.2489 9.765C15.8417 9.70335 15.4535 9.55102 15.1131 9.31926C14.7726 9.0875 14.4886 8.78224 14.2819 8.426L12.2159 4.867Z" fill="black"/>
</svg>
